# xmcd
#
# Track frame offsets:
#       150
#       15032
#       28991
#       44908
#       62598
#       79975
#       98954
#       114311
#       137058
#       155798
#       173785
#       195004
#
# Disc length: 2844 seconds
#
# Revision: 0
# Processed by: cddbd v1.4PL0 Copyright (c) Steve Scherf et al.
# Submitted via: WhereIsIt 3.26
#
DISCID=980b1a0c
DTITLE=Ana BelÚn - Lorquiana
DYEAR=1900
DGENRE=
TTITLE0=Los cuatro muleros
TTITLE1=Zorongo gitano
TTITLE2=La Tarara
TTITLE3=Anda jaleo
TTITLE4=Las tres hojas
TTITLE5=Sevillanas del siglo XVIII
TTITLE6=Los pelegrinitos
TTITLE7=Los mozos de Monleón
TTITLE8=Romance de don Boyso
TTITLE9=Las morillas de Jaén
TTITLE10=En el Café de Chinitas
TTITLE11=Nana de Sevilla
EXTD=
EXTT0=
EXTT1=
EXTT2=
EXTT3=
EXTT4=
EXTT5=
EXTT6=
EXTT7=
EXTT8=
EXTT9=
EXTT10=
EXTT11=
PLAYORDER=
